<svg xmlns="http://www.w3.org/2000/svg" xmlns:xlink="http://www.w3.org/1999/xlink" width="1200" height="1200" viewBox="0 0 1200 1200"><circle stroke="none" fill="#66D6FF" r="48%" cx="50%" cy="50%"/><g transform="translate(600 600) scale(0.69 0.69) rotate(0) translate(-600 -600)" style="fill:#0283B3"><svg fill="#0283B3" xmlns="http://www.w3.org/2000/svg" xmlns:xlink="http://www.w3.org/1999/xlink" version="1.1" x="0px" y="0px" viewBox="0 0 512 512" enable-background="new 0 0 512 512" xml:space="preserve"><g><path d="M480,160c-13.938,0-25.781,8.906-30.172,21.328h-2.125C442.172,80.258,358.453,0,256,0   C153.539,0,69.836,80.258,64.297,181.328h-2.258c-4.508-12.219-16.25-20.938-30.039-20.938c-17.672,0-32,14.328-32,32   c0,14.695,9.906,27.062,23.406,30.82c14.805,111.398,107.742,198.102,221.93,203.211v64.234h-96l0,0   c-5.891,0-10.672,4.781-10.672,10.672S143.445,512,149.336,512l0,0h213.336c5.891,0,10.656-4.781,10.656-10.672   s-4.766-10.672-10.656-10.672h-96.008v-64.234c114.32-5.125,207.352-92.031,221.992-203.617C502.125,219.031,512,206.672,512,192   C512,174.32,497.672,160,480,160z M98.734,125.57c8.594-20.32,20.906-38.57,36.586-54.258c15.68-15.68,33.938-27.984,54.258-36.578   c21.023-8.898,43.375-13.406,66.422-13.406s45.391,4.508,66.422,13.406c20.328,8.594,38.578,20.898,54.25,36.578   c15.688,15.688,28,33.938,36.594,54.258c8.891,21.031,13.406,43.375,13.406,66.43c0,23.047-4.516,45.391-13.406,66.422   c-8.594,20.312-20.906,38.578-36.594,54.25c-15.672,15.688-33.922,28-54.25,36.594c-21.031,8.891-43.375,13.391-66.422,13.391   s-45.398-4.5-66.422-13.391c-20.32-8.594-38.578-20.906-54.258-36.594c-15.68-15.672-27.992-33.938-36.586-54.25   C89.844,237.391,85.336,215.047,85.336,192C85.336,168.945,89.844,146.602,98.734,125.57z M32,203.055   c-5.883,0-10.664-4.789-10.664-10.664c0-5.883,4.781-10.672,10.664-10.672s10.664,4.789,10.664,10.672   C42.664,198.266,37.883,203.055,32,203.055z M452.578,275.031c-10.75,25.406-26.125,48.219-45.734,67.812   c-19.594,19.609-42.406,34.984-67.812,45.734c-26.281,11.109-54.219,16.75-83.031,16.75s-56.75-5.641-83.031-16.75   c-25.406-10.75-48.219-26.125-67.82-45.734c-19.602-19.594-34.984-42.406-45.727-67.812c-7.242-17.125-12.141-34.969-14.688-53.281   c8.234-3.578,14.672-10.523,17.578-19.086h1.984C69.836,303.734,153.539,384,256,384c102.453,0,186.172-80.266,191.703-181.336   h2.125c2.969,8.406,9.359,15.195,17.484,18.711C464.781,239.828,459.875,257.781,452.578,275.031z M480,202.664   c-5.875,0-10.672-4.789-10.672-10.664c0-5.883,4.797-10.672,10.672-10.672s10.672,4.789,10.672,10.672   C490.672,197.875,485.875,202.664,480,202.664z"/><path d="M117.336,202.664c5.891,0,10.664-4.773,10.664-10.664c0-34.195,13.312-66.336,37.492-90.516   C189.664,77.312,221.812,64,256,64c5.891,0,10.664-4.781,10.664-10.672S261.891,42.664,256,42.664   c-82.477,0-149.336,66.859-149.336,149.336C106.664,197.891,111.445,202.664,117.336,202.664z"/></g></svg></g></svg>